<svg width="21" height="27" viewBox="0 0 21 27" fill="none" xmlns="http://www.w3.org/2000/svg">
<path d="M20.303 9.21642C18.5858 10.2775 17.5252 12.0966 17.5252 14.1178C17.5252 16.3916 18.8889 18.4633 20.9596 19.3223C20.5555 20.636 19.9495 21.8488 19.1919 22.9604C18.0808 24.5268 16.9192 26.1437 15.202 26.1437C13.4848 26.1437 12.9798 25.1332 10.9596 25.1332C8.98989 25.1332 8.28282 26.1943 6.66666 26.1943C5.0505 26.1943 3.93939 24.7289 2.67676 22.9099C1.0101 20.3834 0.050505 17.4527 0 14.3704C0 9.36801 3.23232 6.68995 6.46464 6.68995C8.18181 6.68995 9.59595 7.8016 10.6566 7.8016C11.6667 7.8016 13.2828 6.63942 15.202 6.63942C17.2222 6.58889 19.1414 7.54895 20.303 9.21642ZM14.2929 4.51719C15.1515 3.50661 15.606 2.24337 15.6565 0.92961C15.6565 0.778022 15.6565 0.575904 15.606 0.424316C14.1414 0.575904 12.7778 1.28332 11.8182 2.39496C10.9596 3.35502 10.4545 4.56772 10.404 5.88148C10.404 6.03307 10.404 6.18466 10.4545 6.33625C10.5555 6.33625 10.7071 6.38678 10.8081 6.38678C12.1717 6.28572 13.4343 5.57831 14.2929 4.51719Z" fill="#595353"/>
</svg>
