<svg width="22" height="22" viewBox="0 0 22 22" fill="none" xmlns="http://www.w3.org/2000/svg">
<path fill-rule="evenodd" clip-rule="evenodd" d="M10.2458 0.681957C10.11 0.405115 9.87123 0.192486 9.58055 0.0896724C9.28987 -0.0131409 8.97047 0.00204943 8.69086 0.131985C8.41126 0.261921 8.1937 0.496255 8.08485 0.78473C7.97601 1.0732 7.98454 1.39285 8.10863 1.6751L8.57849 2.6871C8.21706 2.97467 7.85406 3.32824 7.49891 3.72896L6.60477 2.8961C6.374 2.69897 6.07608 2.59846 5.77305 2.61551C5.47002 2.63257 5.18526 2.76586 4.97806 2.98764C4.77086 3.20942 4.65721 3.50258 4.66078 3.80607C4.66434 4.10955 4.78485 4.39996 4.9972 4.61681L6.09091 5.63824C5.86389 6.00546 5.65209 6.38187 5.45606 6.76653L4.2822 6.26524C4.13981 6.20447 3.98684 6.17234 3.83203 6.17068C3.67722 6.16902 3.52361 6.19787 3.37995 6.25558C3.23629 6.3133 3.1054 6.39874 2.99476 6.50703C2.88413 6.61533 2.7959 6.74435 2.73513 6.88674C2.67435 7.02913 2.64222 7.1821 2.64056 7.33691C2.63891 7.49172 2.66776 7.64534 2.72547 7.789C2.78318 7.93265 2.86862 8.06354 2.97692 8.17418C3.08521 8.28482 3.21424 8.37304 3.35663 8.43382L4.55249 8.94296L4.52734 9.02153C4.38172 9.47934 4.26229 9.9471 4.16906 10.4248L2.9072 10.2677C2.59692 10.2289 2.28394 10.315 2.03713 10.507C1.79032 10.699 1.62989 10.9812 1.59113 11.2915C1.55237 11.6017 1.63846 11.9147 1.83045 12.1615C2.02245 12.4083 2.30463 12.5688 2.61491 12.6075L3.97577 12.7757C3.99044 13.2178 4.03968 13.6567 4.12349 14.0925L3.06749 14.564C2.92604 14.6272 2.79845 14.7177 2.69202 14.8303C2.58559 14.9429 2.50241 15.0754 2.44724 15.2202C2.39207 15.365 2.36599 15.5192 2.37049 15.6741C2.375 15.829 2.40999 15.9815 2.47349 16.1228C2.74063 16.7168 3.43677 16.9824 4.03077 16.7168L4.9312 16.3145C5.26906 16.918 5.70434 17.4947 6.25591 18.0337L5.50163 18.9388C5.31039 19.1798 5.22098 19.4861 5.25251 19.7922C5.28404 20.0982 5.43401 20.3798 5.67038 20.5768C5.90674 20.7737 6.21076 20.8705 6.51749 20.8463C6.82422 20.8221 7.10933 20.679 7.31191 20.4474L8.14634 19.4464C8.83463 19.8361 9.52449 20.1064 10.2033 20.2745V20.8214C10.2035 20.9762 10.2342 21.1294 10.2937 21.2723C10.3531 21.4152 10.4401 21.545 10.5496 21.6543C10.6592 21.7636 10.7893 21.8502 10.9323 21.9093C11.0754 21.9683 11.2287 21.9986 11.3835 21.9984C11.5383 21.9982 11.6915 21.9675 11.8344 21.9081C11.9773 21.8487 12.1071 21.7617 12.2164 21.6521C12.3257 21.5425 12.4123 21.4125 12.4714 21.2694C12.5304 21.1263 12.5607 20.973 12.5605 20.8182V20.4427C13.4246 20.353 14.2617 20.0895 15.0213 19.668L15.9909 20.7114C16.2037 20.9404 16.4987 21.0755 16.8111 21.087C17.1235 21.0985 17.4276 20.9854 17.6566 20.7727C17.8856 20.5599 18.0208 20.2649 18.0323 19.9525C18.0437 19.6401 17.9307 19.336 17.7179 19.107L16.8348 18.1562C17.2072 17.7037 17.5121 17.1977 17.7399 16.6602L19.0819 16.841C19.3918 16.8826 19.7055 16.7995 19.9541 16.6099C20.2027 16.4202 20.3657 16.1396 20.4074 15.8297C20.4491 15.5199 20.366 15.2061 20.1763 14.9576C19.9867 14.709 19.7061 14.5459 19.3962 14.5042L18.1956 14.344C18.1892 13.7568 18.0938 13.174 17.9128 12.6154L18.8336 12.2225C19.1212 12.1 19.3483 11.8683 19.465 11.5783C19.5817 11.2883 19.5784 10.9638 19.4559 10.6762C19.3334 10.3887 19.1016 10.1616 18.8116 10.0449C18.5217 9.92815 18.1972 9.93143 17.9096 10.054L16.7908 10.5317C16.729 10.4531 16.6656 10.3745 16.6006 10.296C16.3963 9.99267 16.3272 9.64853 16.3539 9.1881C16.3654 9.02048 16.3848 8.85129 16.4121 8.68053H17.8201C18.1326 8.68053 18.4324 8.55636 18.6534 8.33533C18.8745 8.11431 18.9986 7.81453 18.9986 7.50196C18.9986 7.18938 18.8745 6.88961 18.6534 6.66858C18.4324 6.44756 18.1326 6.32339 17.8201 6.32339H16.7703C16.7854 5.945 16.7548 5.56617 16.6792 5.1951L17.8153 4.43767C18.0716 4.2627 18.2486 3.9937 18.3078 3.68907C18.367 3.38443 18.3036 3.06875 18.1315 2.81053C17.9593 2.55232 17.6923 2.37242 17.3883 2.30989C17.0844 2.24736 16.768 2.30724 16.5079 2.47653L15.5478 3.11767C15.3105 2.86665 15.0435 2.64554 14.7526 2.45924L15.1659 1.81024C15.3234 1.54684 15.3719 1.2324 15.3012 0.933785C15.2304 0.635166 15.046 0.375916 14.7871 0.211157C14.5282 0.0463985 14.2152 -0.0108754 13.9147 0.051513C13.6143 0.113901 13.35 0.291031 13.1781 0.545243L12.4929 1.62324C11.9006 1.54255 11.2988 1.56488 10.7141 1.68924L10.2458 0.683528V0.681957ZM13.7548 14.5765C13.7621 14.8347 13.7177 15.0917 13.6239 15.3323C13.5302 15.573 13.3892 15.7924 13.2092 15.9776C13.0292 16.1628 12.8139 16.31 12.576 16.4106C12.3382 16.5111 12.0825 16.5629 11.8243 16.5629C11.566 16.5629 11.3104 16.5111 11.0725 16.4106C10.8346 16.31 10.6193 16.1628 10.4393 15.9776C10.2593 15.7924 10.1183 15.573 10.0246 15.3323C9.93089 15.0917 9.8864 14.8347 9.89377 14.5765C9.90811 14.0741 10.1178 13.597 10.4783 13.2467C10.8387 12.8963 11.3216 12.7003 11.8243 12.7003C12.3269 12.7003 12.8098 12.8963 13.1703 13.2467C13.5308 13.597 13.7404 14.0741 13.7548 14.5765ZM11.4762 8.68996C11.8951 8.68996 12.2967 8.52357 12.5929 8.2274C12.8891 7.93122 13.0555 7.52952 13.0555 7.11067C13.0555 6.69182 12.8891 6.29012 12.5929 5.99395C12.2967 5.69777 11.8951 5.53139 11.4762 5.53139C11.0573 5.53139 10.6556 5.69777 10.3595 5.99395C10.0633 6.29012 9.89691 6.69182 9.89691 7.11067C9.89691 7.52952 10.0633 7.93122 10.3595 8.2274C10.6556 8.52357 11.0573 8.68996 11.4762 8.68996ZM6.93791 11.0062C6.93791 10.6937 7.06208 10.3939 7.28311 10.1729C7.50413 9.95184 7.80391 9.82767 8.11649 9.82767C8.42906 9.82767 8.72884 9.95184 8.94986 10.1729C9.17089 10.3939 9.29506 10.6937 9.29506 11.0062C9.29506 11.3188 9.17089 11.6186 8.94986 11.8396C8.72884 12.0606 8.42906 12.1848 8.11649 12.1848C7.80391 12.1848 7.50413 12.0606 7.28311 11.8396C7.06208 11.6186 6.93791 11.3188 6.93791 11.0062Z" fill="#EFA198"/>
</svg>
