<svg width="20" height="21" viewBox="0 0 20 21" fill="none" xmlns="http://www.w3.org/2000/svg">
<path d="M0 17.157C0 18.857 1.3 20.157 3 20.157H17C18.7 20.157 20 18.857 20 17.157V9.15698H0V17.157ZM17 2.15698H15V1.15698C15 0.556982 14.6 0.156982 14 0.156982C13.4 0.156982 13 0.556982 13 1.15698V2.15698H7V1.15698C7 0.556982 6.6 0.156982 6 0.156982C5.4 0.156982 5 0.556982 5 1.15698V2.15698H3C1.3 2.15698 0 3.45698 0 5.15698V7.15698H20V5.15698C20 3.45698 18.7 2.15698 17 2.15698Z" fill="#EFA198"/>
</svg>
