<svg width="30" height="30" viewBox="0 0 30 30" fill="none" xmlns="http://www.w3.org/2000/svg">
<path d="M3.75 20V12.5C3.75 11.837 4.01339 11.2011 4.48223 10.7322C4.95107 10.2634 5.58696 10 6.25 10C6.91304 10 7.54893 10.2634 8.01777 10.7322C8.48661 11.2011 8.75 11.837 8.75 12.5V20M3.75 16.25H8.75M12.5 10V17.5M12.5 17.5C12.5 18.163 12.7634 18.7989 13.2322 19.2678C13.7011 19.7366 14.337 20 15 20C15.663 20 16.2989 19.7366 16.7678 19.2678C17.2366 18.7989 17.5 18.163 17.5 17.5V16.25C17.5 15.587 17.2366 14.9511 16.7678 14.4822C16.2989 14.0134 15.663 13.75 15 13.75C14.337 13.75 13.7011 14.0134 13.2322 14.4822C12.7634 14.9511 12.5 15.587 12.5 16.25V17.5ZM25.915 15C25.6398 14.5234 25.2151 14.151 24.7066 13.9404C24.1982 13.7298 23.6345 13.6929 23.1029 13.8353C22.5714 13.9777 22.1017 14.2916 21.7666 14.7282C21.4316 15.1648 21.25 15.6997 21.25 16.25V17.5C21.2501 18.049 21.4309 18.5827 21.7646 19.0187C22.0982 19.4547 22.5661 19.7688 23.0959 19.9124C23.6258 20.056 24.1882 20.0213 24.6964 19.8134C25.2045 19.6056 25.6301 19.2363 25.9075 18.7625" stroke="#EFA198" stroke-width="2.5" stroke-linecap="round" stroke-linejoin="round"/>
</svg>
