<svg width="24" height="24" viewBox="0 0 24 24" fill="none" xmlns="http://www.w3.org/2000/svg">
<path d="M23.4622 12.1553C23.4622 5.6764 18.21 0.424206 11.7311 0.424206C5.25219 0.424206 0 5.6764 0 12.1553C0 18.0106 4.28989 22.8638 9.89812 23.7439V15.5463H6.91952V12.1553H9.89812V9.5708C9.89812 6.63069 11.6495 5.00667 14.3291 5.00667C15.6126 5.00667 16.9551 5.23579 16.9551 5.23579V8.12274H15.4758C14.0186 8.12274 13.5641 9.02702 13.5641 9.95474V12.1553H16.8176L16.2975 15.5463H13.5641V23.7439C19.1723 22.8638 23.4622 18.0106 23.4622 12.1553Z" fill="#595353"/>
<path d="M16.296 15.5464L16.8161 12.1554H13.5625V9.95481C13.5625 9.02709 14.017 8.12281 15.4743 8.12281H16.9536V5.23586C16.9536 5.23586 15.6111 5.00673 14.3276 5.00673C11.6479 5.00673 9.89657 6.63076 9.89657 9.57086V12.1554H6.91797V15.5464H9.89657V23.744C10.4938 23.8377 11.106 23.8865 11.7296 23.8865C12.3531 23.8865 12.9653 23.8377 13.5625 23.744V15.5464H16.296Z" fill="white"/>
</svg>
