<svg width="30" height="29" viewBox="0 0 30 29" fill="none" xmlns="http://www.w3.org/2000/svg">
<path d="M15.0187 28.9796C13.0156 28.9796 11.1333 28.5995 9.37161 27.8393C7.60993 27.0791 6.07751 26.0475 4.77434 24.7443C3.47118 23.4411 2.43951 21.9087 1.67933 20.147C0.919152 18.3853 0.539062 16.503 0.539062 14.5C0.539062 12.497 0.919152 10.6146 1.67933 8.85294C2.43951 7.09125 3.47118 5.55883 4.77434 4.25567C6.07751 2.9525 7.60993 1.92083 9.37161 1.16065C11.1333 0.400475 13.0156 0.0203857 15.0187 0.0203857C17.0217 0.0203857 18.904 0.400475 20.6657 1.16065C22.4274 1.92083 23.9598 2.9525 25.263 4.25567C26.5661 5.55883 27.5978 7.09125 28.358 8.85294C29.1182 10.6146 29.4982 12.497 29.4982 14.5C29.4982 16.503 29.1182 18.3853 28.358 20.147C27.5978 21.9087 26.5661 23.4411 25.263 24.7443C23.9598 26.0475 22.4274 27.0791 20.6657 27.8393C18.904 28.5995 17.0217 28.9796 15.0187 28.9796ZM13.5707 26.0113V23.1877C12.7743 23.1877 12.0926 22.9042 11.5255 22.3371C10.9583 21.7699 10.6748 21.0882 10.6748 20.2918V18.8439L3.72457 11.8937C3.65217 12.328 3.58581 12.7624 3.52548 13.1968C3.46515 13.6312 3.43498 14.0656 3.43498 14.5C3.43498 17.42 4.39425 19.9781 6.3128 22.1742C8.23135 24.3702 10.6506 25.6493 13.5707 26.0113ZM23.5616 22.319C24.0443 21.788 24.4787 21.2149 24.8648 20.5995C25.2509 19.9841 25.5707 19.3446 25.824 18.681C26.0774 18.0173 26.2705 17.3356 26.4032 16.6357C26.536 15.9359 26.6023 15.224 26.6023 14.5C26.6023 12.135 25.9447 9.97511 24.6295 8.02036C23.3143 6.06562 21.5586 4.65386 19.3625 3.78508V4.36426C19.3625 5.16064 19.079 5.84239 18.5119 6.40951C17.9447 6.97662 17.263 7.26018 16.4666 7.26018H13.5707V10.1561C13.5707 10.5664 13.4319 10.9102 13.1544 11.1878C12.8769 11.4653 12.533 11.6041 12.1227 11.6041H9.22682V14.5H17.9146C18.3248 14.5 18.6687 14.6387 18.9462 14.9163C19.2238 15.1938 19.3625 15.5377 19.3625 15.9479V20.2918H20.8105C21.4379 20.2918 22.0051 20.4788 22.5118 20.8529C23.0186 21.227 23.3686 21.7156 23.5616 22.319Z" fill="white"/>
</svg>
