<svg width="22" height="22" viewBox="0 0 22 22" fill="none" xmlns="http://www.w3.org/2000/svg">
<path d="M21.0773 11.422C21.0773 10.6595 21.0088 9.92628 20.8818 9.22241H10.7539V13.3821H16.5412C16.292 14.7263 15.5343 15.8651 14.3954 16.6277V19.3258H17.8708C19.9042 17.4537 21.0773 14.6969 21.0773 11.422Z" fill="#595353"/>
<path d="M10.7543 21.9313C13.6577 21.9313 16.0919 20.9684 17.8711 19.326L14.3958 16.6279C13.4329 17.2731 12.2011 17.6543 10.7543 17.6543C7.95346 17.6543 5.5828 15.7627 4.73718 13.2209H1.14453V16.0071C2.91397 19.5215 6.55061 21.9313 10.7543 21.9313Z" fill="#595353"/>
<path d="M4.73643 13.2209C4.52136 12.5756 4.39916 11.8864 4.39916 11.1777C4.39916 10.4689 4.52136 9.77974 4.73643 9.13453V6.34839H1.14378C0.391037 7.8469 -0.000663419 9.50074 8.43453e-07 11.1777C8.43453e-07 12.9129 0.415477 14.5553 1.14378 16.007L4.73643 13.2209Z" fill="#595353"/>
<path d="M10.7543 4.70128C12.3331 4.70128 13.7506 5.24384 14.865 6.30942L17.9493 3.22512C16.087 1.48989 13.6528 0.424316 10.7543 0.424316C6.55061 0.424316 2.91397 2.83408 1.14453 6.34852L4.73718 9.13466C5.5828 6.59292 7.95346 4.70128 10.7543 4.70128Z" fill="#595353"/>
</svg>
