<svg width="27" height="27" viewBox="0 0 27 27" fill="none" xmlns="http://www.w3.org/2000/svg">
<path d="M13.5 6.51709C14.8359 7.49113 16.093 8.56884 17.2597 9.74021C18.4311 10.9069 19.5088 12.1641 20.4828 13.5M13.5 6.51709C12.1641 7.49113 10.9069 8.56884 9.74021 9.74021C8.56884 10.9069 7.49113 12.1641 6.51709 13.5M13.5 6.51709C17.5162 3.61009 21.3153 2.51884 22.8982 4.10171C24.4811 5.68459 23.3898 9.48371 20.4828 13.5M20.4828 13.5C23.3898 17.5162 24.4811 21.3153 22.8982 22.8982C21.7248 24.0716 19.332 23.7757 16.5375 22.3582M20.4828 13.5C19.5088 14.8359 18.4311 16.093 17.2597 17.2597C16.093 18.4311 14.8359 19.5088 13.5 20.4828M6.51709 13.5C7.49113 14.8359 8.56884 16.093 9.74021 17.2597C10.9069 18.4311 12.1641 19.5088 13.5 20.4828M6.51709 13.5C3.61009 17.5162 2.51884 21.3153 4.10171 22.8982C5.68459 24.4811 9.48371 23.3898 13.5 20.4828M6.51709 13.5C3.61121 9.48371 2.51996 5.68459 4.10171 4.10171C5.27509 2.92834 7.66796 3.22421 10.4625 4.64171" stroke="#EFA198" stroke-width="1.6875" stroke-linecap="round" stroke-linejoin="round"/>
<path d="M13.5 15.75C14.7426 15.75 15.75 14.7426 15.75 13.5C15.75 12.2574 14.7426 11.25 13.5 11.25C12.2574 11.25 11.25 12.2574 11.25 13.5C11.25 14.7426 12.2574 15.75 13.5 15.75Z" stroke="#EFA198" stroke-width="1.6875" stroke-linecap="round" stroke-linejoin="round"/>
</svg>
