<svg width="24" height="25" viewBox="0 0 24 25" fill="none" xmlns="http://www.w3.org/2000/svg">
<path fill-rule="evenodd" clip-rule="evenodd" d="M8 7.15698C8 6.09612 8.42143 5.0787 9.17157 4.32856C9.92172 3.57841 10.9391 3.15698 12 3.15698C13.0609 3.15698 14.0783 3.57841 14.8284 4.32856C15.5786 5.0787 16 6.09612 16 7.15698C16 8.21785 15.5786 9.23526 14.8284 9.98541C14.0783 10.7356 13.0609 11.157 12 11.157C10.9391 11.157 9.92172 10.7356 9.17157 9.98541C8.42143 9.23526 8 8.21785 8 7.15698ZM8 13.157C6.67392 13.157 5.40215 13.6838 4.46447 14.6214C3.52678 15.5591 3 16.8309 3 18.157C3 18.9526 3.31607 19.7157 3.87868 20.2783C4.44129 20.8409 5.20435 21.157 6 21.157H18C18.7956 21.157 19.5587 20.8409 20.1213 20.2783C20.6839 19.7157 21 18.9526 21 18.157C21 16.8309 20.4732 15.5591 19.5355 14.6214C18.5979 13.6838 17.3261 13.157 16 13.157H8Z" fill="#EFA198"/>
</svg>
