<svg width="25" height="25" viewBox="0 0 25 25" fill="none" xmlns="http://www.w3.org/2000/svg">
<path d="M22.7094 6.69235C22.3857 5.95809 21.9607 5.27278 21.4469 4.65641L18.7234 7.37985C19.361 7.75716 20.1121 7.89519 20.8421 7.76922C21.5722 7.64325 22.2336 7.26151 22.7078 6.69235M17.6172 6.27516L20.3406 3.55172C19.7247 3.03802 19.04 2.61307 18.3062 2.28922C17.7367 2.76355 17.3547 3.42522 17.2287 4.15563C17.1027 4.88604 17.241 5.63744 17.6187 6.27516M15.625 4.68766C15.625 5.70016 15.9469 6.63766 16.4922 7.40328L15.2344 8.6611L9.78438 3.20953C10.7637 2.49805 11.8819 2.00069 13.0661 1.74979C14.2503 1.4989 15.4741 1.50009 16.6578 1.75328C15.9896 2.58532 15.6252 3.62048 15.625 4.68766ZM16.3391 9.76578L17.5969 8.50797C18.3625 9.05485 19.3 9.37516 20.3125 9.37516C21.3795 9.37539 22.4146 9.01161 23.2469 8.34391C23.3729 8.92933 23.4365 9.53349 23.4375 10.1564C23.4375 12.047 22.8266 13.797 21.7906 15.2173L16.3391 9.76578ZM20.7563 16.3923L15.2344 10.8705L14.2891 11.8158C15.914 13.6681 16.9111 15.9871 17.1375 18.4408C18.5125 18.0611 19.75 17.3455 20.7563 16.3923ZM6.55781 7.86266C6.9375 6.48766 7.65156 5.25016 8.60469 4.24391L14.1297 9.76578L13.1844 10.7111C11.3321 9.08611 9.01145 8.08903 6.55781 7.86266ZM3.90625 9.37516C3.28465 9.37516 2.68851 9.62209 2.24897 10.0616C1.80943 10.5012 1.5625 11.0973 1.5625 11.7189V13.2814C1.5625 15.975 2.63253 18.5583 4.5372 20.463C6.44186 22.3676 9.02515 23.4377 11.7188 23.4377H13.2812C13.9029 23.4377 14.499 23.1907 14.9385 22.7512C15.3781 22.3117 15.625 21.7155 15.625 21.0939V19.5314C15.625 16.8378 14.555 14.2545 12.6503 12.3499C10.7456 10.4452 8.16235 9.37516 5.46875 9.37516H3.90625ZM6.86875 14.6814C6.94132 14.6087 7.02753 14.5509 7.12245 14.5115C7.21736 14.4722 7.31911 14.4519 7.42188 14.4519C7.52464 14.4519 7.62639 14.4722 7.7213 14.5115C7.81622 14.5509 7.90243 14.6087 7.975 14.6814L10.3188 17.0252C10.3914 17.0978 10.449 17.184 10.4883 17.2789C10.5276 17.3738 10.5479 17.4756 10.5479 17.5783C10.5479 17.681 10.5276 17.7827 10.4883 17.8776C10.449 17.9725 10.3914 18.0588 10.3188 18.1314C10.2461 18.204 10.1599 18.2617 10.065 18.301C9.97007 18.3403 9.86835 18.3605 9.76562 18.3605C9.6629 18.3605 9.56118 18.3403 9.46628 18.301C9.37137 18.2617 9.28514 18.204 9.2125 18.1314L6.86875 15.7877C6.79599 15.7151 6.73827 15.6289 6.69889 15.534C6.6595 15.439 6.63923 15.3373 6.63923 15.2345C6.63923 15.1318 6.6595 15.03 6.69889 14.9351C6.73827 14.8402 6.79599 14.754 6.86875 14.6814Z" fill="#EFA198"/>
</svg>
